<?xml version="1.0" encoding="utf-8"?>
<!-- Generator: Adobe Illustrator 24.2.0, SVG Export Plug-In . SVG Version: 6.00 Build 0)  -->
<svg version="1.1" id="Layer_1" xmlns="http://www.w3.org/2000/svg" xmlns:xlink="http://www.w3.org/1999/xlink" x="0px" y="0px"
	 viewBox="0 0 360 360" enable-background="new 0 0 360 360" xml:space="preserve">
<g>
	<path fill="#AE1C3F" d="M448.76-70.27c27.63-62.37,53.99-125.28,81.02-187.91c4.76,0.09,9.53,0.03,14.3,0.05
		c28.38,66.33,56.7,132.68,85.07,199.01c4.11,10.36,13.95,17.93,24.69,20.38c3.98,1.08,8.07,1.74,12.2,2.04
		c0.02,3.79,0.05,7.57-0.06,11.36c-35.16-0.08-70.32,0.02-105.48-0.05c0.01-3.81-0.03-7.62,0.07-11.42
		c8.35-0.57,16.77-1.37,24.87-3.6c2.63-0.95,5.89-1.87,7.18-4.62c0.28-2.56-0.11-5.18-1.03-7.58
		c-7.08-17.31-14.35-34.54-21.34-51.89c-29.64-0.24-59.3-0.02-88.94-0.11c-5.06,11.28-9.51,22.82-13.58,34.48
		c-2,6.21-4.1,12.53-4.26,19.11c-0.08,4.18,3.67,7.01,7.14,8.53c9.36,3.91,19.56,5.37,29.64,5.75c-0.01,3.75-0.02,7.51,0.05,11.27
		c-31.9,0.21-63.81,0.09-95.71,0.06c0.02-3.78,0.01-7.56,0.03-11.33c7.06-0.93,14.26-1.99,20.85-4.82c4.85-2.51,9.23-5.96,13-9.89
		C443.01-57.04,445.86-63.75,448.76-70.27z M487.51-119.07c25.48-0.09,50.96,0.19,76.44-0.14c-12.94-29.52-25.69-59.11-38.39-88.73
		C512.58-178.45,500.23-148.67,487.51-119.07z"/>
</g>
<path fill="#AE1C3F" d="M753.18-249.89c23.16-8.35,48.43-10.02,72.7-6.48c14.41,2.35,28.44,7.1,41.37,13.87
	c2.61-3.52,4.95-7.24,7.53-10.79c4.68,0.04,9.37,0.01,14.06,0.03c0.57,25.95,1.14,51.9,1.69,77.86c-4.9,0-9.8,0-14.7,0
	c-4.82-15.19-10.2-30.63-20.05-43.38c-10.5-14.21-27.23-23.56-44.79-25.32c-18.44-1.9-38.04,0.88-53.72,11.32
	c-15.67,10.51-26.89,26.9-32.7,44.71c-6.74,20.52-8.21,42.59-5.82,63.99c2.7,19.53,8.88,39.29,21.69,54.64
	c10.7,13.42,25.86,23.23,42.53,27.34c15.02,3.63,30.97,3.7,46,0.07c8.31-2.4,16.89-4.9,23.84-10.27c1.92-11.13,1.68-22.49,1.8-33.75
	c-0.06-7.36,0.64-15.11-2.5-22c-2.54-4.91-8.22-6.72-13.19-8.09c-8.76-2.03-17.77-2.65-26.7-3.46c-0.09-3.79-0.06-7.57-0.06-11.36
	c37.07-0.02,74.13-0.01,111.2-0.01c0,3.78,0,7.55,0.01,11.33c-8.93,1.64-18.7,1.34-26.59,6.43c-5.03,3.19-6.48,9.59-6.52,15.16
	c0.04,17.76-0.21,35.54,0.88,53.27c-17.84,7.02-36.3,12.54-55.2,15.8c-23.32,4.09-47.58,5.52-70.75-0.17
	c-27.18-6.58-53.4-21.13-69.75-44.32c-10.8-14.99-18.24-32.56-20.18-51.01c-2.43-21.41-0.01-43.63,8.75-63.43
	c7.11-15.76,17.96-29.74,31.17-40.86C726.36-238.13,739.45-245.06,753.18-249.89z"/>
<g>
	<path fill="#AE1C3F" d="M961.86-258.13c39.37,0.01,78.74-0.03,118.11,0.02c17.69,0.34,35.95,2.7,51.72,11.26
		c10.04,5.15,18.72,13.41,23.38,23.79c4.98,11.65,4.94,24.97,1.98,37.14c-3.33,13.36-12.76,24.58-24.44,31.59
		c-11.02,6.61-23.16,11.15-35.51,14.56c20.81,24.81,40.8,50.28,61.17,75.45c5.01,6.27,10.42,12.39,17.17,16.85
		c5.09,3.34,10.33,6.78,16.37,8.11c5.71,1.19,11.49,2.14,17.33,2.5c0,3.84,0.06,7.68-0.08,11.53c-22.82-0.1-45.64,0.02-68.45-0.07
		c-25.11-36.5-52.05-71.75-80.91-105.38c-8.56,0.03-17.13,0.02-25.69,0.01c0.02,25.27-0.11,50.54,0.07,75.81
		c-0.06,6.15,3.11,12.59,9.28,14.57c8.31,2.5,17.1,2.88,25.72,3.51c0.01,3.84,0.05,7.69-0.06,11.54
		c-35.68-0.01-71.36-0.11-107.03,0.04c-0.25-3.87-0.13-7.74-0.13-11.61c7.35-0.79,14.81-0.99,22.05-2.61
		c7.89-1.59,12.33-9.92,11.88-17.51c0.02-55.65,0-111.3,0.01-166.95c-0.04-4.21-0.25-8.67-2.32-12.44c-2.4-3.98-7.07-5.54-11.3-6.7
		c-6.66-1.68-13.47-2.83-20.33-3.22C961.84-250.27,961.84-254.2,961.86-258.13z M1034.03-244.62c-0.08,33.26-0.01,66.52-0.03,99.78
		c9.69-0.1,19.39,0.25,29.08-0.23c16.2-0.95,32.43-8.36,42.22-21.57c8.56-11.4,10.8-26.4,9.07-40.27
		c-1.24-9.88-5.93-19.35-13.47-25.94c-8.86-8.2-21.21-11.28-33-11.67C1056.61-244.71,1045.32-244.52,1034.03-244.62z"/>
</g>
<path fill="#AE1C3F" d="M1233.76-258.13c38.11-0.01,76.21-0.01,114.32,0c0,3.44,0,6.88,0.01,10.32
	c-10.34,0.91-21.01,1.17-30.77,5.08c-5.32,2.18-7.6,8.37-7.45,13.76c0.03,58.29-0.01,116.59,0.02,174.89
	c-0.14,4.46,1.96,8.92,5.73,11.4c4.41,3.52,10.17,3.89,15.47,5.09c5.59,1.13,11.29,1.71,16.99,1.94c0.01,3.43,0.03,6.87-0.08,10.31
	c-37.96-0.12-75.92,0.09-113.88-0.1c-0.9-3.16-0.12-6.86-0.36-10.22c6.14-0.13,12.25-0.79,18.38-1.15
	c5.34-0.34,10.92-1.46,15.2-4.86c3.33-2.7,4.75-7.13,4.62-11.31c-0.01-56,0.02-112.01-0.02-168.01c-0.27-5.35-0.29-10.89-2.04-16
	c-2.61-3.64-7.17-5.11-11.26-6.37c-8.17-2.1-16.5-3.57-24.87-4.46C1233.74-251.25,1233.74-254.69,1233.76-258.13z"/>
<g>
	<path fill="#AE1C3F" d="M1390.8-258.13c31.07-0.01,62.14,0,93.22,0c22.5,0.12,45.23-0.69,67.47,3.43
		c17.9,3.59,36.08,10.7,48.47,24.64c11.53,12.41,16.15,30.82,11.41,47.13c-4.2,14.75-16,26.32-29.65,32.7
		c-4.8,2.53-10.09,3.84-15.02,6.03c16.47,3.72,34.02,8.76,45.56,21.92c11.91,12.59,15.79,31.69,10.52,48.1
		c-5.89,18.46-21.24,32.89-39.08,39.85c-19.55,7.68-40.92,8.28-61.65,8.89c-43.78,0.08-87.56,0.19-131.33-0.05
		c0.03-2.02,0.06-4.03,0.1-6.04c10.07-0.01,21.39,0.93,29.81-5.73c7.07-5.17,6.99-14.9,7.65-22.77c0.32-22.33,0.05-44.67,0.14-67.01
		c-0.06-31.63,0.12-63.26-0.08-94.89c-0.57-7.52-0.31-16.06-5.18-22.28c-8.37-8.64-21.33-7.8-32.37-7.73
		C1390.78-254,1390.78-256.06,1390.8-258.13z M1465.51-242.97c-0.03,29.81,0.01,59.62-0.02,89.43c12.37,2.14,24.95,2.5,37.47,2.5
		c11.72-0.1,23.54-0.77,34.98-3.55c7.18-1.72,13.99-5.05,19.69-9.76c12.67-10.59,18.53-28.81,13.74-44.7
		c-3.33-11.34-11.97-20.38-21.84-26.48c-12.79-7.67-27.9-10.26-42.6-10.91C1493.06-246.92,1479.05-246.18,1465.51-242.97z
		 M1465.48-137.5c0.05,31.76-0.01,63.53,0.04,95.3c7.41,1.49,14.89,2.76,22.42,3.56c18.81,1.86,38.32,2.15,56.5-3.72
		c14.27-4.61,27.61-14.53,33.4-28.7c7.69-19.43-1.25-43.18-18.74-54.07c-16.35-10.36-36.11-13.48-55.14-14.01
		C1491.13-139.19,1478.19-139.6,1465.48-137.5z"/>
</g>
<g>
	<path fill="#AE1C3F" d="M1784.1-258.13c2.24,0,4.5,0,6.78,0c30.95,64.48,61.83,128.99,92.82,193.44c4.36,8.57,9.08,17.2,16,24
		c7.2,6.56,17.29,8.39,26.71,9.02c-0.02,2.08-0.01,4.17,0.03,6.26c-34.26,0.04-68.52,0.12-102.77-0.04c0-2.08,0.02-4.15,0.05-6.22
		c7.13-0.46,14.86-0.46,21.05-4.51c3.94-2.47,6.04-7.34,5.02-11.91c-1.69-9.62-6.37-18.35-10.51-27.08
		c-4.36-8.78-8.38-17.74-12.96-26.4c-33.5,0.25-67,0.03-100.5,0.1c-5.74,11.72-11.43,23.45-17.16,35.17
		c-3.15,6.41-6.5,13.04-6.89,20.29c-0.18,5.32,4.44,9.34,9.02,11.12c6.7,2.4,13.91,2.76,20.96,3.21c-0.02,2.1-0.02,4.2,0,6.31
		c-27.38-0.07-54.75,0.14-82.12-0.1c0.02-2.08,0.06-4.15,0.1-6.22c8.41-1.67,18.28-2.31,24.26-9.28
		c9.34-10.35,15.42-23.07,21.51-35.47C1725.03-137.01,1754.56-197.57,1784.1-258.13z M1731.77-113.88c29.79,0.02,59.58,0.02,89.38,0
		c-14.64-30.67-29.47-61.26-44.02-91.98C1761.81-175.3,1746.9-144.53,1731.77-113.88z"/>
</g>
<path fill="#AE1C3F" d="M1925.57-258.13c23.52-0.04,47.04,0.07,70.56-0.05c51.18,54.85,102.08,109.96,153.16,164.91
	c2.04,2.22,4.03,4.5,6.3,6.53c0.05-42.76,0-85.52,0.02-128.28c-0.07-8.63,0.08-17.54-2.88-25.76c-1.69-4.72-6.36-7.46-10.83-9.07
	c-7.48-2.72-15.56-2.12-23.36-2.18c-0.02-2.03-0.02-4.07,0-6.1c30.27,0,60.55-0.01,90.82,0c-0.02,2.03-0.02,4.06,0.01,6.1
	c-9.81,0.03-20.7-0.88-29.05,5.29c-7.98,5.4-7.44,16.17-7.97,24.69c-0.07,65.52-0.14,131.04,0.03,196.56
	c-2.33,0.13-4.64,0.15-6.93,0.1c-57.21-61.52-114.35-123.1-171.67-184.52c-0.04,44.96,0,89.91-0.02,134.87
	c-0.02,9.75-0.05,19.61,2.05,29.19c0.75,3.4,1.95,7.09,5.17,8.95c8.54,6.15,19.55,5.49,29.54,5.44c-0.01,2.01,0,4.03,0.04,6.06
	c-30.18,0.1-60.35-0.03-90.52,0.06c-0.08-2.08-0.05-4.16,0.11-6.24c10.17,0.28,21.77,0.9,30.01-6.18c3.95-3.03,4.73-8.22,5.47-12.8
	c1.69-12.06,0.99-24.26,1.15-36.39c-0.05-47.16,0.08-94.32-0.07-141.47c-5.94-5.89-11.86-12.01-19.15-16.24
	c-9.77-5.28-20.91-7.74-31.99-7.38C1925.55-254.07,1925.55-256.1,1925.57-258.13z"/>
<path fill="#AE1C3F" d="M2219.03-258.13c37.06,0,74.13-0.01,111.2,0c-0.03,2.07-0.03,4.13,0,6.2c-6.88,0.01-13.93-0.4-20.55,1.77
	c-5.51,1.64-11.51,4.36-13.84,10.01c-2.5,6.37-2.43,13.36-2.66,20.1c-0.06,24.78-0.01,49.56-0.02,74.33
	c28.89-24.43,58.98-47.56,86.08-74.04c5.45-5.74,11.76-11.46,14.01-19.32c1.37-4.13-0.9-8.63-4.71-10.47
	c-5.65-2.96-12.27-2.27-18.41-2.39c-0.03-2.07-0.03-4.13,0-6.19c31.87,0,63.75,0,95.63,0c-0.03,2.06-0.03,4.11,0,6.18
	c-3.54,0.26-7.05,0.47-10.52,1.03c-8.05,1.21-15.37,5.01-22.51,8.71c-13.28,7.54-24.66,17.87-36.03,27.94
	c-22.02,20.11-44.2,40.05-66.46,59.88c31.8,28.23,63.6,56.48,95.4,84.71c9.25,8.17,18.74,16.15,29.12,22.86
	c13.48,8.79,29.21,13.99,45.24,15.31v6.14c-41.31,0.01-82.61-0.01-123.92,0.01c-0.02-2.05-0.03-4.09,0-6.14
	c4.95-0.22,10.15-0.37,14.69-2.63c2.78-1.46,5.38-3.87,6.09-7.05c0.52-3.99-0.69-8.24-3.53-11.14c-5.8-6.23-12.33-11.71-18.67-17.37
	c-27.16-24.01-54.32-48.03-81.49-72.03c-0.03,25.25-0.01,50.5-0.01,75.75c0.1,7.01,0.1,14.15,1.89,20.99
	c1.42,5.43,6.69,8.47,11.54,10.46c7.42,3.38,15.71,3.06,23.68,2.99c-0.13,2.07-0.05,4.15-0.13,6.22
	c-37.03-0.13-74.06-0.05-111.09-0.04c-0.03-2.07-0.04-4.14-0.01-6.2c10.06,0.01,21.3,0.86,29.8-5.59c3.89-2.6,5.64-7.18,6.32-11.64
	c1.72-10.33,1.08-20.85,1.22-31.27c-0.01-45.99,0.01-91.98-0.01-137.97c-0.14-6.97-0.12-14.07-1.9-20.86
	c-1.53-5.63-7.29-8.46-12.25-10.5c-7.35-3.06-15.43-2.56-23.19-2.55C2219-254,2219-256.06,2219.03-258.13z"/>
<g>
	<g>
		<path fill="#FFFFFF" d="M14.48-348h314.01c6.23,0.68,11.98,5,13.87,11.05c1.16,3.52,0.74,7.29,0.82,10.93
			c-0.02,98-0.01,196.01,0,294.01c-0.11,4.63,0.59,9.56-1.58,13.86c-2.34,5.1-7.52,8.45-13.01,9.15H14.67
			C7.18-9.73,0.79-15.91,0-23.43v-310.06C0.74-340.98,7.05-347.14,14.48-348z M33.03-331.01c-7.64,1.94-14.01,8.24-15.85,15.92
			c-0.96,3.63-0.69,7.41-0.73,11.13c0.02,58.4-0.03,116.81-0.01,175.22c1.93-1.31,3.54-3,5.16-4.65
			c36.87-36.44,73.77-72.86,110.63-109.31c0.4,3.71,1.57,7.29,3.11,10.68c-39.61,39.21-79.2,78.42-118.87,117.56
			c-0.11,21.15,0,42.31-0.06,63.47c0,3.02-0.06,6.1,0.76,9.04c1.9,7.64,8.2,13.94,15.8,15.93c3.56,1.03,7.3,0.83,10.96,0.86
			c20.61-0.01,41.23-0.01,61.85,0c28.54-28.11,56.98-56.33,85.53-84.44c-0.94,3.88-1.42,7.85-1.24,11.84
			c-6.12,2.47-12.58,4.76-17.45,9.4c-5.58,5.07-8.67,12.47-9.1,19.92c-1.67,1.54-3.29,3.14-4.82,4.82
			c-6.91,1.74-14.26,3.01-20.23,7.15c-7.37,6.08-11.12,15.59-12.02,24.92c-2.47,1.89-4.59,4.18-6.76,6.39
			c61.48-0.04,122.95,0.03,184.43-0.03c9.39,0.08,18.37-6.3,21.36-15.2c1.59-4.36,1.16-9.05,1.22-13.59
			c0-58.59,0.02-117.17,0.03-175.75c-33.58,33.13-67.12,66.32-100.7,99.45c-0.33-3.94-5.17-7.95-1.99-11.65
			c34.18-33.85,68.42-67.66,102.67-101.45c0.03-22.23,0.07-44.45,0-66.68c-0.03-11.47-10.23-21.52-21.65-21.67
			c-22.92-0.11-45.85,0.03-68.78-0.06c-25.53,25.16-51,50.39-76.47,75.62c-0.49-3.08-1.48-6.06-2.89-8.84
			c8.32-4.57,16.67-11.1,18.92-20.83c2.81-2.65,5.55-5.39,8.26-8.13c5.01-2.14,9.99-4.44,14.54-7.46
			c6.33-3.96,9.69-11.19,11.42-18.2c4.14-4.01,8.25-8.05,12.29-12.17c-59.44,0-118.88,0.01-178.32,0
			C40.36-331.77,36.61-332.03,33.03-331.01z"/>
	</g>
	<path fill="#053E2B" d="M33.03-331.01c3.58-1.02,7.33-0.76,11-0.79c59.44,0.01,118.88,0,178.32,0c-4.04,4.12-8.15,8.16-12.29,12.17
		c0.59-3.21,0.67-6.49,0.65-9.75c-12.54,0.25-25.77,3.21-35.44,11.66c-5.34,4.57-8.58,11.04-10.32,17.75
		c-10.08,3.35-19.97,9.57-24.44,19.6c-2.83,5.57-3.02,11.89-3.19,17.99c-3.15,6.07-6.09,12.62-5.09,19.68
		C95.37-206.25,58.47-169.83,21.6-133.39c-1.62,1.65-3.23,3.34-5.16,4.65c-0.02-58.41,0.03-116.82,0.01-175.22
		c0.04-3.72-0.23-7.5,0.73-11.13C19.02-322.77,25.39-329.07,33.03-331.01z"/>
	<path fill="#053E2B" d="M176.39-290.9c2.56-1.04,5.15-2.04,7.71-3.07c-2.71,2.74-5.45,5.48-8.26,8.13
		C176.06-287.52,176.22-289.21,176.39-290.9z"/>
	<path fill="#053E2B" d="M226.03-130.28c33.58-33.13,67.12-66.32,100.7-99.45c-0.01,58.58-0.03,117.16-0.03,175.75
		c-0.06,4.54,0.37,9.23-1.22,13.59c-2.99,8.9-11.97,15.28-21.36,15.2c-61.48,0.06-122.95-0.01-184.43,0.03
		c2.17-2.21,4.29-4.5,6.76-6.39c-0.04,1.57-0.06,3.13-0.08,4.7c6.28-2.02,12.45-4.45,18.93-5.82c8.77-1.61,17.75-4.41,24.35-10.7
		c5.77-5.19,8.41-12.96,8.57-20.57c7.97-3.24,17.08-5.08,23.18-11.62c5.31-5.39,7.5-12.9,8.62-20.2c4.33-3.34,8.93-6.64,11.79-11.43
		C226.31-113.89,228.03-122.41,226.03-130.28z"/>
	<path fill="#053E2B" d="M158.7-63.62c1.53-1.68,3.15-3.28,4.82-4.82c-0.02,1.32-0.05,2.65-0.06,3.97
		C161.87-64.19,160.28-63.92,158.7-63.62z"/>
	<g>
		<path fill="#AE1C3F" d="M236.28-331.79c22.93,0.09,45.86-0.05,68.78,0.06c11.42,0.15,21.62,10.2,21.65,21.67
			c0.07,22.23,0.03,44.45,0,66.68c-34.25,33.79-68.49,67.6-102.67,101.45c-3.18,3.7,1.66,7.71,1.99,11.65
			c2,7.87,0.28,16.39-4.22,23.09c-2.86,4.79-7.46,8.09-11.79,11.43c-1.12,7.3-3.31,14.81-8.62,20.2
			c-6.1,6.54-15.21,8.38-23.18,11.62c-0.16,7.61-2.8,15.38-8.57,20.57c-6.6,6.29-15.58,9.09-24.35,10.7
			c-6.48,1.37-12.65,3.8-18.93,5.82c0.02-1.57,0.04-3.13,0.08-4.7c0.9-9.33,4.65-18.84,12.02-24.92c5.97-4.14,13.32-5.41,20.23-7.15
			c1.58-0.3,3.17-0.57,4.76-0.85c0.01-1.32,0.04-2.65,0.06-3.97c0.43-7.45,3.52-14.85,9.1-19.92c4.87-4.64,11.33-6.93,17.45-9.4
			c-0.18-3.99,0.3-7.96,1.24-11.84c-28.55,28.11-56.99,56.33-85.53,84.44c-20.62-0.01-41.24-0.01-61.85,0
			c-3.66-0.03-7.4,0.17-10.96-0.86c-7.6-1.99-13.9-8.29-15.8-15.93c-0.82-2.94-0.76-6.02-0.76-9.04
			c0.06-21.16-0.05-42.32,0.06-63.47c39.67-39.14,79.26-78.35,118.87-117.56c-1.54-3.39-2.71-6.97-3.11-10.68
			c-1-7.06,1.94-13.61,5.09-19.68c0.17-6.1,0.36-12.42,3.19-17.99c4.47-10.03,14.36-16.25,24.44-19.6
			c1.74-6.71,4.98-13.18,10.32-17.75c9.67-8.45,22.9-11.41,35.44-11.66c0.02,3.26-0.06,6.54-0.65,9.75
			c-1.73,7.01-5.09,14.24-11.42,18.2c-4.55,3.02-9.53,5.32-14.54,7.46c-2.56,1.03-5.15,2.03-7.71,3.07
			c-0.17,1.69-0.33,3.38-0.55,5.06c-2.25,9.73-10.6,16.26-18.92,20.83c1.41,2.78,2.4,5.76,2.89,8.84
			C185.28-281.4,210.75-306.63,236.28-331.79z M174.8-314.2c-6.23,6.39-8.6,15.54-8.49,24.26c10.18-3.13,20.26-6.91,29.51-12.23
			c8.81-4.83,12.68-15.4,12.78-24.98C196.43-326.54,183.48-323.29,174.8-314.2z M144.22-282.67c-4.83,7.54-5.43,17.02-3.65,25.61
			c6.84-5.15,14.47-9.08,21.59-13.81c6.44-4.37,11.75-11.26,12.12-19.29c-3.33,1.11-6.66,2.27-10.04,3.22
			c-0.11-3.54,0-7.08,0.3-10.6C156.58-294.62,148.76-290.07,144.22-282.67z M139.56-252.85c-0.49-1.89-0.84-3.87-2.04-5.46
			c-2.74,5.35-4.06,11.53-2.81,17.49c1.43,8.73,7.85,15.41,13.85,21.42c2.78-5.32,4.08-11.29,6.14-16.91
			c3.11-8.72,5.04-19.03,0.32-27.54C149.64-260.53,143.95-257.51,139.56-252.85z M150.15-216.25c-2.33-1.26-4.44-2.88-6.47-4.56
			c-0.03,3.69,0.3,7.54,2.27,10.76c3.33,5.8,9.49,9.09,15.46,11.58c6.15,2.47,11.97,5.63,17.73,8.91c0.87-7.81-0.21-16.16-4.8-22.72
			c-4.77-7.09-12.56-11.38-20.47-14.09C152.43-223.08,151.37-219.63,150.15-216.25z M180.88-185.97c-3.09-1.79-6.15-3.64-9.33-5.25
			c1.63,5.74,4.82,11.61,10.46,14.23c8.86,4.49,18.12,8.14,26.9,12.8c0.75-7.13-0.04-14.69-3.99-20.84
			c-5.21-8.64-14.52-13.55-23.7-16.92C181.63-196.62,181.76-191.26,180.88-185.97z M210.06-160.44c-3.94-2.54-7.91-5.24-12.45-6.56
			c-2.97,14.22,7.01,25.96,11.84,38.41c0.7,1.11,0.6,3.05,2.03,3.54c7.32-5.87,11.29-15.63,9.7-24.94
			c-0.71-7.35-5.17-13.49-9.68-19.03C211.21-166.13,210.78-163.25,210.06-160.44z M221.74-135.42c-2.6,5.93-6.89,11.04-12.36,14.52
			c-0.37-1.95-0.56-4-1.72-5.67c-4.71,4.34-10.25,8.27-12.87,14.34c-3.7,8-2.86,17.24-0.25,25.43c3.59-2.18,6.59-5.18,10.03-7.57
			c5.71-4.56,12.41-8.43,16.04-15.03C225.43-117.09,226.32-127.43,221.74-135.42z M171.74-84.28c-5.36,6.24-6.94,14.9-5.84,22.89
			c8.83-4.02,18.23-6.62,27.06-10.61c8.35-3.98,13.18-12.83,14.49-21.7c-4.79,3.29-9.3,6.96-13.48,11
			c-1.92-4.02-2.92-8.37-3.8-12.71C183.44-92.9,176.39-90.03,171.74-84.28z M164.43-57.88c-0.24-1.44-0.48-2.87-0.72-4.3
			c-7.88,1.43-16.07,2.83-23.09,6.88c-7.93,5.79-11.55,15.89-12.03,25.4c6.31-2.2,12.67-4.3,19.24-5.58
			c7.61-1.4,15.17-4.43,20.75-9.93c4.79-4.58,7.15-11.16,7.43-17.7C171.99-61.74,168.07-60.07,164.43-57.88z"/>
	</g>
	<path fill="#FFDD00" d="M174.8-314.2c8.68-9.09,21.63-12.34,33.8-12.95c-0.1,9.58-3.97,20.15-12.78,24.98
		c-9.25,5.32-19.33,9.1-29.51,12.23C166.2-298.66,168.57-307.81,174.8-314.2z"/>
	<path fill="#FFDD00" d="M144.22-282.67c4.54-7.4,12.36-11.95,20.32-14.87c-0.3,3.52-0.41,7.06-0.3,10.6
		c3.38-0.95,6.71-2.11,10.04-3.22c-0.37,8.03-5.68,14.92-12.12,19.29c-7.12,4.73-14.75,8.66-21.59,13.81
		C138.79-265.65,139.39-275.13,144.22-282.67z"/>
	<path fill="#FFDD00" d="M139.56-252.85c4.39-4.66,10.08-7.68,15.46-11c4.72,8.51,2.79,18.82-0.32,27.54
		c-2.06,5.62-3.36,11.59-6.14,16.91c-6-6.01-12.42-12.69-13.85-21.42c-1.25-5.96,0.07-12.14,2.81-17.49
		C138.72-256.72,139.07-254.74,139.56-252.85z"/>
	<path fill="#FFDD00" d="M150.15-216.25c1.22-3.38,2.28-6.83,3.72-10.12c7.91,2.71,15.7,7,20.47,14.09
		c4.59,6.56,5.67,14.91,4.8,22.72c-5.76-3.28-11.58-6.44-17.73-8.91c-5.97-2.49-12.13-5.78-15.46-11.58
		c-1.97-3.22-2.3-7.07-2.27-10.76C145.71-219.13,147.82-217.51,150.15-216.25z"/>
	<path fill="#FFDD00" d="M180.88-185.97c0.88-5.29,0.75-10.65,0.34-15.98c9.18,3.37,18.49,8.28,23.7,16.92
		c3.95,6.15,4.74,13.71,3.99,20.84c-8.78-4.66-18.04-8.31-26.9-12.8c-5.64-2.62-8.83-8.49-10.46-14.23
		C174.73-189.61,177.79-187.76,180.88-185.97z"/>
	<path fill="#FFDD00" d="M210.06-160.44c0.72-2.81,1.15-5.69,1.44-8.58c4.51,5.54,8.97,11.68,9.68,19.03
		c1.59,9.31-2.38,19.07-9.7,24.94c-1.43-0.49-1.33-2.43-2.03-3.54c-4.83-12.45-14.81-24.19-11.84-38.41
		C202.15-165.68,206.12-162.98,210.06-160.44z"/>
	<path fill="#FFDD00" d="M221.74-135.42c4.58,7.99,3.69,18.33-1.13,26.02c-3.63,6.6-10.33,10.47-16.04,15.03
		c-3.44,2.39-6.44,5.39-10.03,7.57c-2.61-8.19-3.45-17.43,0.25-25.43c2.62-6.07,8.16-10,12.87-14.34c1.16,1.67,1.35,3.72,1.72,5.67
		C214.85-124.38,219.14-129.49,221.74-135.42z"/>
	<path fill="#FFDD00" d="M171.74-84.28c4.65-5.75,11.7-8.62,18.43-11.13c0.88,4.34,1.88,8.69,3.8,12.71
		c4.18-4.04,8.69-7.71,13.48-11c-1.31,8.87-6.14,17.72-14.49,21.7c-8.83,3.99-18.23,6.59-27.06,10.61
		C164.8-69.38,166.38-78.04,171.74-84.28z"/>
	<path fill="#FFDD00" d="M164.43-57.88c3.64-2.19,7.56-3.86,11.58-5.23c-0.28,6.54-2.64,13.12-7.43,17.7
		c-5.58,5.5-13.14,8.53-20.75,9.93c-6.57,1.28-12.93,3.38-19.24,5.58c0.48-9.51,4.1-19.61,12.03-25.4
		c7.02-4.05,15.21-5.45,23.09-6.88C163.95-60.75,164.19-59.32,164.43-57.88z"/>
</g>
<g>
	<g>
		<path fill="#FFFFFF" d="M22.878,10.5h314.01c6.23,0.68,11.98,5,13.87,11.05c1.16,3.52,0.74,7.29,0.82,10.93
			c-0.02,98-0.01,196.01,0,294.01c-0.11,4.63,0.59,9.56-1.58,13.86c-2.34,5.1-7.52,8.45-13.01,9.15H23.068
			c-7.49-0.73-13.88-6.91-14.67-14.43V25.01C9.138,17.52,15.448,11.36,22.878,10.5z M41.428,27.49
			c-7.64,1.94-14.01,8.24-15.85,15.92c-0.96,3.63-0.69,7.41-0.73,11.13c0.02,58.4-0.03,116.81-0.01,175.22
			c1.93-1.31,3.54-3,5.16-4.65c36.87-36.44,73.77-72.86,110.63-109.31c0.4,3.71,1.57,7.29,3.11,10.68
			c-39.61,39.21-79.2,78.42-118.87,117.56c-0.11,21.15,0,42.31-0.06,63.47c0,3.02-0.06,6.1,0.76,9.04c1.9,7.64,8.2,13.94,15.8,15.93
			c3.56,1.03,7.3,0.83,10.96,0.86c20.61-0.01,41.23-0.01,61.85,0c28.54-28.11,56.98-56.33,85.53-84.44
			c-0.94,3.88-1.42,7.85-1.24,11.84c-6.12,2.47-12.58,4.76-17.45,9.4c-5.58,5.07-8.67,12.47-9.1,19.92
			c-1.67,1.54-3.29,3.14-4.82,4.82c-6.91,1.74-14.26,3.01-20.23,7.15c-7.37,6.08-11.12,15.59-12.02,24.92
			c-2.47,1.89-4.59,4.18-6.76,6.39c61.48-0.04,122.95,0.03,184.43-0.03c9.39,0.08,18.37-6.3,21.36-15.2
			c1.59-4.36,1.16-9.05,1.22-13.59c0-58.59,0.02-117.17,0.03-175.75c-33.58,33.13-67.12,66.32-100.7,99.45
			c-0.33-3.94-5.17-7.95-1.99-11.65c34.18-33.85,68.42-67.66,102.67-101.45c0.03-22.23,0.07-44.45,0-66.68
			c-0.03-11.47-10.23-21.52-21.65-21.67c-22.92-0.11-45.85,0.03-68.78-0.06c-25.53,25.16-51,50.39-76.47,75.62
			c-0.49-3.08-1.48-6.06-2.89-8.84c8.32-4.57,16.67-11.1,18.92-20.83c2.81-2.65,5.55-5.39,8.26-8.13c5.01-2.14,9.99-4.44,14.54-7.46
			c6.33-3.96,9.69-11.19,11.42-18.2c4.14-4.01,8.25-8.05,12.29-12.17c-59.44,0-118.88,0.01-178.32,0
			C48.758,26.73,45.008,26.47,41.428,27.49z"/>
	</g>
	<path fill="#053E2B" d="M41.428,27.49c3.58-1.02,7.33-0.76,11-0.79c59.44,0.01,118.88,0,178.32,0c-4.04,4.12-8.15,8.16-12.29,12.17
		c0.59-3.21,0.67-6.49,0.65-9.75c-12.54,0.25-25.77,3.21-35.44,11.66c-5.34,4.57-8.58,11.04-10.32,17.75
		c-10.08,3.35-19.97,9.57-24.44,19.6c-2.83,5.57-3.02,11.89-3.19,17.99c-3.15,6.07-6.09,12.62-5.09,19.68
		c-36.86,36.45-73.76,72.87-110.63,109.31c-1.62,1.65-3.23,3.34-5.16,4.65c-0.02-58.41,0.03-116.82,0.01-175.22
		c0.04-3.72-0.23-7.5,0.73-11.13C27.418,35.73,33.788,29.43,41.428,27.49z"/>
	<path fill="#053E2B" d="M184.788,67.6c2.56-1.04,5.15-2.04,7.71-3.07c-2.71,2.74-5.45,5.48-8.26,8.13
		C184.458,70.98,184.618,69.29,184.788,67.6z"/>
	<path fill="#053E2B" d="M234.428,228.22c33.58-33.13,67.12-66.32,100.7-99.45c-0.01,58.58-0.03,117.16-0.03,175.75
		c-0.06,4.54,0.37,9.23-1.22,13.59c-2.99,8.9-11.97,15.28-21.36,15.2c-61.48,0.06-122.95-0.01-184.43,0.03
		c2.17-2.21,4.29-4.5,6.76-6.39c-0.04,1.57-0.06,3.13-0.08,4.7c6.28-2.02,12.45-4.45,18.93-5.82c8.77-1.61,17.75-4.41,24.35-10.7
		c5.77-5.19,8.41-12.96,8.57-20.57c7.97-3.24,17.08-5.08,23.18-11.62c5.31-5.39,7.5-12.9,8.62-20.2c4.33-3.34,8.93-6.64,11.79-11.43
		C234.708,244.61,236.428,236.09,234.428,228.22z"/>
	<path fill="#053E2B" d="M167.098,294.88c1.53-1.68,3.15-3.28,4.82-4.82c-0.02,1.32-0.05,2.65-0.06,3.97
		C170.268,294.31,168.678,294.58,167.098,294.88z"/>
	<g>
		<path fill="#AE1C3F" d="M244.678,26.71c22.93,0.09,45.86-0.05,68.78,0.06c11.42,0.15,21.62,10.2,21.65,21.67
			c0.07,22.23,0.03,44.45,0,66.68c-34.25,33.79-68.49,67.6-102.67,101.45c-3.18,3.7,1.66,7.71,1.99,11.65
			c2,7.87,0.28,16.39-4.22,23.09c-2.86,4.79-7.46,8.09-11.79,11.43c-1.12,7.3-3.31,14.81-8.62,20.2
			c-6.1,6.54-15.21,8.38-23.18,11.62c-0.16,7.61-2.8,15.38-8.57,20.57c-6.6,6.29-15.58,9.09-24.35,10.7
			c-6.48,1.37-12.65,3.8-18.93,5.82c0.02-1.57,0.04-3.13,0.08-4.7c0.9-9.33,4.65-18.84,12.02-24.92c5.97-4.14,13.32-5.41,20.23-7.15
			c1.58-0.3,3.17-0.57,4.76-0.85c0.01-1.32,0.04-2.65,0.06-3.97c0.43-7.45,3.52-14.85,9.1-19.92c4.87-4.64,11.33-6.93,17.45-9.4
			c-0.18-3.99,0.3-7.96,1.24-11.84c-28.55,28.11-56.99,56.33-85.53,84.44c-20.62-0.01-41.24-0.01-61.85,0
			c-3.66-0.03-7.4,0.17-10.96-0.86c-7.6-1.99-13.9-8.29-15.8-15.93c-0.82-2.94-0.76-6.02-0.76-9.04
			c0.06-21.16-0.05-42.32,0.06-63.47c39.67-39.14,79.26-78.35,118.87-117.56c-1.54-3.39-2.71-6.97-3.11-10.68
			c-1-7.06,1.94-13.61,5.09-19.68c0.17-6.1,0.36-12.42,3.19-17.99c4.47-10.03,14.36-16.25,24.44-19.6
			c1.74-6.71,4.98-13.18,10.32-17.75c9.67-8.45,22.9-11.41,35.44-11.66c0.02,3.26-0.06,6.54-0.65,9.75
			c-1.73,7.01-5.09,14.24-11.42,18.2c-4.55,3.02-9.53,5.32-14.54,7.46c-2.56,1.03-5.15,2.03-7.71,3.07
			c-0.17,1.69-0.33,3.38-0.55,5.06c-2.25,9.73-10.6,16.26-18.92,20.83c1.41,2.78,2.4,5.76,2.89,8.84
			C193.678,77.1,219.148,51.87,244.678,26.71z M183.198,44.3c-6.23,6.39-8.6,15.54-8.49,24.26c10.18-3.13,20.26-6.91,29.51-12.23
			c8.81-4.83,12.68-15.4,12.78-24.98C204.828,31.96,191.878,35.21,183.198,44.3z M152.618,75.83c-4.83,7.54-5.43,17.02-3.65,25.61
			c6.84-5.15,14.47-9.08,21.59-13.81c6.44-4.37,11.75-11.26,12.12-19.29c-3.33,1.11-6.66,2.27-10.04,3.22
			c-0.11-3.54,0-7.08,0.3-10.6C164.978,63.88,157.158,68.43,152.618,75.83z M147.958,105.65c-0.49-1.89-0.84-3.87-2.04-5.46
			c-2.74,5.35-4.06,11.53-2.81,17.49c1.43,8.73,7.85,15.41,13.85,21.42c2.78-5.32,4.08-11.29,6.14-16.91
			c3.11-8.72,5.04-19.03,0.32-27.54C158.038,97.97,152.348,100.99,147.958,105.65z M158.548,142.25c-2.33-1.26-4.44-2.88-6.47-4.56
			c-0.03,3.69,0.3,7.54,2.27,10.76c3.33,5.8,9.49,9.09,15.46,11.58c6.15,2.47,11.97,5.63,17.73,8.91c0.87-7.81-0.21-16.16-4.8-22.72
			c-4.77-7.09-12.56-11.38-20.47-14.09C160.828,135.42,159.768,138.87,158.548,142.25z M189.278,172.53
			c-3.09-1.79-6.15-3.64-9.33-5.25c1.63,5.74,4.82,11.61,10.46,14.23c8.86,4.49,18.12,8.14,26.9,12.8
			c0.75-7.13-0.04-14.69-3.99-20.84c-5.21-8.64-14.52-13.55-23.7-16.92C190.028,161.88,190.158,167.24,189.278,172.53z
			 M218.458,198.06c-3.94-2.54-7.91-5.24-12.45-6.56c-2.97,14.22,7.01,25.96,11.84,38.41c0.7,1.11,0.6,3.05,2.03,3.54
			c7.32-5.87,11.29-15.63,9.7-24.94c-0.71-7.35-5.17-13.49-9.68-19.03C219.608,192.37,219.178,195.25,218.458,198.06z
			 M230.138,223.08c-2.6,5.93-6.89,11.04-12.36,14.52c-0.37-1.95-0.56-4-1.72-5.67c-4.71,4.34-10.25,8.27-12.87,14.34
			c-3.7,8-2.86,17.24-0.25,25.43c3.59-2.18,6.59-5.18,10.03-7.57c5.71-4.56,12.41-8.43,16.04-15.03
			C233.828,241.41,234.718,231.07,230.138,223.08z M180.138,274.22c-5.36,6.24-6.94,14.9-5.84,22.89
			c8.83-4.02,18.23-6.62,27.06-10.61c8.35-3.98,13.18-12.83,14.49-21.7c-4.79,3.29-9.3,6.96-13.48,11
			c-1.92-4.02-2.92-8.37-3.8-12.71C191.838,265.6,184.788,268.47,180.138,274.22z M172.828,300.62c-0.24-1.44-0.48-2.87-0.72-4.3
			c-7.88,1.43-16.07,2.83-23.09,6.88c-7.93,5.79-11.55,15.89-12.03,25.4c6.31-2.2,12.67-4.3,19.24-5.58
			c7.61-1.4,15.17-4.43,20.75-9.93c4.79-4.58,7.15-11.16,7.43-17.7C180.388,296.76,176.468,298.43,172.828,300.62z"/>
	</g>
	<path fill="#FFDD00" d="M183.198,44.3c8.68-9.09,21.63-12.34,33.8-12.95c-0.1,9.58-3.97,20.15-12.78,24.98
		c-9.25,5.32-19.33,9.1-29.51,12.23C174.598,59.84,176.968,50.69,183.198,44.3z"/>
	<path fill="#FFDD00" d="M152.618,75.83c4.54-7.4,12.36-11.95,20.32-14.87c-0.3,3.52-0.41,7.06-0.3,10.6
		c3.38-0.95,6.71-2.11,10.04-3.22c-0.37,8.03-5.68,14.92-12.12,19.29c-7.12,4.73-14.75,8.66-21.59,13.81
		C147.188,92.85,147.788,83.37,152.618,75.83z"/>
	<path fill="#FFDD00" d="M147.958,105.65c4.39-4.66,10.08-7.68,15.46-11c4.72,8.51,2.79,18.82-0.32,27.54
		c-2.06,5.62-3.36,11.59-6.14,16.91c-6-6.01-12.42-12.69-13.85-21.42c-1.25-5.96,0.07-12.14,2.81-17.49
		C147.118,101.78,147.468,103.76,147.958,105.65z"/>
	<path fill="#FFDD00" d="M158.548,142.25c1.22-3.38,2.28-6.83,3.72-10.12c7.91,2.71,15.7,7,20.47,14.09
		c4.59,6.56,5.67,14.91,4.8,22.72c-5.76-3.28-11.58-6.44-17.73-8.91c-5.97-2.49-12.13-5.78-15.46-11.58
		c-1.97-3.22-2.3-7.07-2.27-10.76C154.108,139.37,156.218,140.99,158.548,142.25z"/>
	<path fill="#FFDD00" d="M189.278,172.53c0.88-5.29,0.75-10.65,0.34-15.98c9.18,3.37,18.49,8.28,23.7,16.92
		c3.95,6.15,4.74,13.71,3.99,20.84c-8.78-4.66-18.04-8.31-26.9-12.8c-5.64-2.62-8.83-8.49-10.46-14.23
		C183.128,168.89,186.188,170.74,189.278,172.53z"/>
	<path fill="#FFDD00" d="M218.458,198.06c0.72-2.81,1.15-5.69,1.44-8.58c4.51,5.54,8.97,11.68,9.68,19.03
		c1.59,9.31-2.38,19.07-9.7,24.94c-1.43-0.49-1.33-2.43-2.03-3.54c-4.83-12.45-14.81-24.19-11.84-38.41
		C210.548,192.82,214.518,195.52,218.458,198.06z"/>
	<path fill="#FFDD00" d="M230.138,223.08c4.58,7.99,3.69,18.33-1.13,26.02c-3.63,6.6-10.33,10.47-16.04,15.03
		c-3.44,2.39-6.44,5.39-10.03,7.57c-2.61-8.19-3.45-17.43,0.25-25.43c2.62-6.07,8.16-10,12.87-14.34c1.16,1.67,1.35,3.72,1.72,5.67
		C223.248,234.12,227.538,229.01,230.138,223.08z"/>
	<path fill="#FFDD00" d="M180.138,274.22c4.65-5.75,11.7-8.62,18.43-11.13c0.88,4.34,1.88,8.69,3.8,12.71
		c4.18-4.04,8.69-7.71,13.48-11c-1.31,8.87-6.14,17.72-14.49,21.7c-8.83,3.99-18.23,6.59-27.06,10.61
		C173.198,289.12,174.778,280.46,180.138,274.22z"/>
	<path fill="#FFDD00" d="M172.828,300.62c3.64-2.19,7.56-3.86,11.58-5.23c-0.28,6.54-2.64,13.12-7.43,17.7
		c-5.58,5.5-13.14,8.53-20.75,9.93c-6.57,1.28-12.93,3.38-19.24,5.58c0.48-9.51,4.1-19.61,12.03-25.4
		c7.02-4.05,15.21-5.45,23.09-6.88C172.348,297.75,172.588,299.18,172.828,300.62z"/>
</g>
<g>
	<g>
		<g>
			<path fill="#FFFFFF" d="M2792.947-634.173h624.677c12.394,1.353,23.832,9.947,27.592,21.982
				c2.308,7.003,1.472,14.502,1.631,21.744c-0.04,194.957-0.02,389.933,0,584.89c-0.219,9.211,1.174,19.018-3.143,27.572
				c-4.655,10.146-14.96,16.81-25.882,18.203h-624.498c-14.9-1.452-27.612-13.746-29.184-28.706v-616.819
				C2765.613-620.208,2778.166-632.462,2792.947-634.173z M2829.849-600.374c-15.199,3.859-27.871,16.392-31.531,31.671
				c-1.91,7.221-1.373,14.741-1.452,22.141c0.04,116.178-0.06,232.376-0.02,348.574c3.839-2.606,7.042-5.968,10.265-9.25
				c73.347-72.492,146.754-144.944,220.082-217.456c0.796,7.38,3.123,14.502,6.187,21.246
				c-78.798,78.003-157.557,156.005-236.474,233.868c-0.219,42.075,0,84.17-0.119,126.264c0,6.008-0.119,12.135,1.512,17.984
				c3.78,15.199,16.313,27.732,31.432,31.69c7.082,2.049,14.522,1.651,21.803,1.711c41.001-0.02,82.021-0.02,123.042,0
				c56.776-55.921,113.353-112.06,170.149-167.981c-1.87,7.719-2.825,15.616-2.467,23.554c-12.175,4.914-25.026,9.469-34.714,18.7
				c-11.101,10.086-17.248,24.807-18.103,39.628c-3.322,3.064-6.545,6.247-9.589,9.589c-13.747,3.461-28.368,5.988-40.245,14.224
				c-14.662,12.095-22.122,31.014-23.912,49.575c-4.914,3.76-9.131,8.315-13.448,12.712c122.305-0.08,244.591,0.06,366.896-0.06
				c18.68,0.159,36.544-12.533,42.493-30.238c3.163-8.674,2.308-18.004,2.427-27.035c0-116.556,0.04-233.092,0.06-349.629
				c-66.802,65.907-133.525,131.934-200.328,197.841c-0.656-7.838-10.285-15.815-3.959-23.176
				c67.996-67.34,136.112-134.6,204.247-201.82c0.06-44.223,0.139-88.427,0-132.65c-0.06-22.818-20.351-42.811-43.07-43.109
				c-45.596-0.219-91.212,0.06-136.828-0.119c-50.788,50.052-101.457,100.243-152.126,150.435
				c-0.975-6.127-2.944-12.055-5.749-17.586c16.551-9.091,33.162-22.082,37.638-41.438c5.59-5.272,11.041-10.723,16.432-16.173
				c9.967-4.257,19.874-8.833,28.925-14.841c12.593-7.878,19.277-22.261,22.719-36.206c8.236-7.977,16.412-16.014,24.449-24.21
				c-118.247,0-236.494,0.02-354.741,0C2844.431-601.886,2836.971-602.403,2829.849-600.374z"/>
		</g>
		<path fill="#053E2B" d="M2829.849-600.374c7.122-2.029,14.582-1.512,21.883-1.572c118.247,0.02,236.494,0,354.741,0
			c-8.037,8.196-16.213,16.233-24.449,24.21c1.174-6.386,1.333-12.911,1.293-19.396c-24.946,0.497-51.265,6.386-70.502,23.196
			c-10.623,9.091-17.069,21.962-20.53,35.311c-20.053,6.664-39.727,19.038-48.62,38.991c-5.63,11.081-6.008,23.653-6.346,35.788
			c-6.266,12.075-12.115,25.106-10.126,39.15c-73.328,72.512-146.735,144.964-220.082,217.456c-3.223,3.282-6.426,6.644-10.265,9.25
			c-0.04-116.198,0.06-232.396,0.02-348.574c0.08-7.4-0.458-14.92,1.452-22.141C2801.979-583.982,2814.651-596.514,2829.849-600.374
			z"/>
		<path fill="#053E2B" d="M3115.043-520.581c5.093-2.069,10.245-4.058,15.338-6.107c-5.391,5.451-10.842,10.902-16.432,16.173
			C3114.386-513.857,3114.705-517.219,3115.043-520.581z"/>
		<path fill="#053E2B" d="M3213.794-201.051c66.802-65.907,133.525-131.934,200.328-197.841
			c-0.02,116.536-0.06,233.073-0.06,349.629c-0.119,9.032,0.736,18.362-2.427,27.035c-5.948,17.705-23.813,30.397-42.493,30.238
			c-122.305,0.119-244.591-0.02-366.896,0.06c4.317-4.396,8.534-8.952,13.448-12.712c-0.08,3.123-0.119,6.227-0.159,9.35
			c12.493-4.018,24.768-8.853,37.658-11.578c17.447-3.203,35.311-8.773,48.441-21.286c11.479-10.325,16.73-25.782,17.049-40.921
			c15.855-6.446,33.978-10.106,46.113-23.116c10.563-10.723,14.92-25.663,17.148-40.185c8.614-6.644,17.765-13.209,23.455-22.738
			C3214.351-168.446,3217.773-185.395,3213.794-201.051z"/>
		<path fill="#053E2B" d="M3079.851-68.441c3.044-3.342,6.266-6.525,9.589-9.589c-0.04,2.626-0.099,5.272-0.119,7.898
			C3086.157-69.575,3082.994-69.038,3079.851-68.441z"/>
		<g>
			<path fill="#AE1C3F" d="M3234.185-601.925c45.616,0.179,91.232-0.099,136.828,0.119c22.719,0.298,43.01,20.291,43.07,43.109
				c0.139,44.223,0.06,88.427,0,132.65c-68.135,67.22-136.251,134.48-204.247,201.82c-6.326,7.361,3.302,15.338,3.959,23.176
				c3.979,15.656,0.557,32.605-8.395,45.934c-5.69,9.529-14.841,16.094-23.455,22.738c-2.228,14.522-6.585,29.462-17.148,40.185
				c-12.135,13.01-30.258,16.671-46.113,23.116c-0.318,15.139-5.57,30.596-17.049,40.921c-13.13,12.513-30.994,18.083-48.441,21.286
				c-12.891,2.725-25.165,7.56-37.658,11.578c0.04-3.123,0.08-6.227,0.159-9.35c1.791-18.561,9.25-37.479,23.912-49.575
				c11.876-8.236,26.498-10.762,40.245-14.224c3.143-0.597,6.306-1.134,9.469-1.691c0.02-2.626,0.08-5.272,0.119-7.898
				c0.855-14.821,7.002-29.542,18.103-39.628c9.688-9.231,22.54-13.786,34.714-18.7c-0.358-7.938,0.597-15.835,2.467-23.554
				c-56.796,55.921-113.373,112.06-170.149,167.981c-41.021-0.02-82.041-0.02-123.042,0c-7.281-0.06-14.721,0.338-21.803-1.711
				c-15.119-3.959-27.652-16.492-31.432-31.69c-1.631-5.849-1.512-11.976-1.512-17.984c0.119-42.095-0.1-84.189,0.119-126.264
				c78.917-77.863,157.676-155.866,236.474-233.868c-3.063-6.744-5.391-13.866-6.187-21.246
				c-1.989-14.045,3.859-27.075,10.126-39.15c0.338-12.135,0.716-24.708,6.346-35.788c8.892-19.953,28.567-32.327,48.62-38.991
				c3.461-13.349,9.907-26.22,20.53-35.311c19.237-16.81,45.556-22.699,70.502-23.196c0.04,6.485-0.119,13.01-1.293,19.396
				c-3.442,13.945-10.126,28.328-22.719,36.206c-9.052,6.008-18.958,10.583-28.925,14.841c-5.093,2.049-10.245,4.038-15.338,6.107
				c-0.338,3.362-0.656,6.724-1.094,10.066c-4.476,19.356-21.087,32.347-37.638,41.438c2.805,5.53,4.774,11.459,5.749,17.586
				C3132.728-501.682,3183.397-551.873,3234.185-601.925z M3111.88-566.933c-12.394,12.712-17.108,30.915-16.89,48.262
				c20.252-6.227,40.304-13.746,58.706-24.33c17.526-9.609,25.225-30.636,25.424-49.694
				C3154.909-591.481,3129.147-585.016,3111.88-566.933z M3051.045-504.208c-9.609,15-10.802,33.859-7.261,50.947
				c13.607-10.245,28.786-18.063,42.95-27.473c12.812-8.693,23.375-22.4,24.111-38.375c-6.625,2.208-13.249,4.516-19.973,6.406
				c-0.219-7.042,0-14.085,0.597-21.087C3075.634-527.981,3060.077-518.93,3051.045-504.208z M3041.775-444.886
				c-0.975-3.76-1.671-7.699-4.058-10.862c-5.451,10.643-8.077,22.937-5.59,34.794c2.845,17.367,15.616,30.656,27.552,42.612
				c5.531-10.583,8.117-22.46,12.215-33.64c6.187-17.347,10.026-37.857,0.637-54.787
				C3061.828-460.164,3050.508-454.156,3041.775-444.886z M3062.842-372.076c-4.635-2.507-8.833-5.729-12.871-9.071
				c-0.06,7.341,0.597,15,4.516,21.405c6.625,11.538,18.879,18.083,30.755,23.037c12.235,4.914,23.813,11.2,35.271,17.725
				c1.731-15.537-0.418-32.148-9.549-45.198c-9.489-14.104-24.986-22.639-40.722-28.03
				C3067.378-385.663,3065.269-378.8,3062.842-372.076z M3123.975-311.838c-6.147-3.561-12.235-7.241-18.561-10.444
				c3.242,11.419,9.589,23.096,20.809,28.308c17.625,8.932,36.047,16.193,53.513,25.464c1.492-14.184-0.08-29.224-7.938-41.458
				c-10.365-17.188-28.885-26.956-47.147-33.66C3125.467-333.025,3125.726-322.362,3123.975-311.838z M3182.024-261.05
				c-7.838-5.053-15.736-10.424-24.767-13.05c-5.908,28.289,13.945,51.644,23.554,76.411c1.392,2.208,1.194,6.068,4.038,7.042
				c14.562-11.678,22.46-31.094,19.297-49.614c-1.412-14.622-10.285-26.836-19.257-37.857
				C3184.312-272.369,3183.457-266.64,3182.024-261.05z M3205.26-211.276c-5.172,11.797-13.707,21.962-24.588,28.885
				c-0.736-3.879-1.114-7.957-3.422-11.28c-9.37,8.634-20.391,16.452-25.603,28.527c-7.361,15.915-5.689,34.296-0.497,50.589
				c7.142-4.337,13.11-10.305,19.953-15.059c11.359-9.071,24.688-16.77,31.909-29.9
				C3212.601-174.812,3214.371-195.381,3205.26-211.276z M3105.792-109.541c-10.663,12.414-13.806,29.641-11.618,45.536
				c17.566-7.997,36.266-13.17,53.832-21.107c16.611-7.918,26.219-25.523,28.826-43.169c-9.529,6.545-18.501,13.846-26.817,21.883
				c-3.819-7.997-5.809-16.651-7.559-25.285C3129.068-126.689,3115.043-120.98,3105.792-109.541z M3091.25-57.022
				c-0.478-2.865-0.955-5.709-1.432-8.554c-15.676,2.845-31.969,5.63-45.934,13.687c-15.776,11.518-22.977,31.611-23.932,50.53
				c12.553-4.377,25.205-8.554,38.275-11.101c15.139-2.785,30.178-8.813,41.279-19.754c9.529-9.111,14.224-22.201,14.781-35.212
				C3106.29-64.701,3098.491-61.379,3091.25-57.022z"/>
		</g>
		<path fill="#FFDD00" d="M3111.88-566.933c17.268-18.083,43.03-24.549,67.24-25.762c-0.199,19.058-7.898,40.085-25.424,49.694
			c-18.402,10.583-38.454,18.103-58.706,24.33C3094.771-536.018,3099.486-554.221,3111.88-566.933z"/>
		<path fill="#FFDD00" d="M3051.045-504.208c9.032-14.721,24.588-23.773,40.424-29.582c-0.597,7.003-0.815,14.045-0.597,21.087
			c6.724-1.89,13.349-4.198,19.973-6.406c-0.736,15.975-11.3,29.681-24.111,38.375c-14.164,9.41-29.343,17.228-42.95,27.473
			C3040.243-470.35,3041.437-489.209,3051.045-504.208z"/>
		<path fill="#FFDD00" d="M3041.775-444.886c8.733-9.27,20.052-15.278,30.755-21.883c9.39,16.929,5.55,37.44-0.637,54.787
			c-4.098,11.18-6.684,23.057-12.215,33.64c-11.936-11.956-24.708-25.245-27.552-42.612c-2.487-11.857,0.139-24.151,5.59-34.794
			C3040.104-452.585,3040.8-448.646,3041.775-444.886z"/>
		<path fill="#FFDD00" d="M3062.842-372.076c2.427-6.724,4.536-13.587,7.4-20.132c15.736,5.391,31.233,13.925,40.722,28.03
			c9.131,13.05,11.28,29.661,9.549,45.198c-11.459-6.525-23.037-12.811-35.271-17.725c-11.876-4.953-24.131-11.498-30.755-23.037
			c-3.919-6.406-4.575-14.065-4.516-21.405C3054.01-377.805,3058.207-374.582,3062.842-372.076z"/>
		<path fill="#FFDD00" d="M3123.975-311.838c1.751-10.524,1.492-21.187,0.677-31.79c18.262,6.704,36.783,16.472,47.147,33.66
			c7.858,12.234,9.43,27.274,7.938,41.458c-17.466-9.27-35.888-16.532-53.513-25.464c-11.22-5.212-17.566-16.89-20.809-28.308
			C3111.74-319.079,3117.828-315.399,3123.975-311.838z"/>
		<path fill="#FFDD00" d="M3182.024-261.05c1.432-5.59,2.288-11.319,2.865-17.069c8.972,11.021,17.844,23.236,19.257,37.857
			c3.163,18.521-4.735,37.937-19.297,49.614c-2.845-0.975-2.646-4.834-4.038-7.042c-9.609-24.767-29.462-48.122-23.554-76.411
			C3166.289-271.474,3174.186-266.103,3182.024-261.05z"/>
		<path fill="#FFDD00" d="M3205.26-211.276c9.111,15.895,7.341,36.465-2.248,51.763c-7.221,13.13-20.55,20.829-31.909,29.9
			c-6.843,4.755-12.811,10.723-19.953,15.059c-5.192-16.293-6.863-34.674,0.497-50.589c5.212-12.075,16.233-19.894,25.603-28.527
			c2.308,3.322,2.686,7.4,3.422,11.28C3191.553-189.314,3200.088-199.479,3205.26-211.276z"/>
		<path fill="#FFDD00" d="M3105.792-109.541c9.25-11.439,23.275-17.148,36.664-22.142c1.75,8.634,3.74,17.287,7.559,25.285
			c8.316-8.037,17.288-15.338,26.817-21.883c-2.606,17.646-12.215,35.251-28.826,43.169c-17.566,7.938-36.266,13.11-53.832,21.107
			C3091.986-79.899,3095.129-97.127,3105.792-109.541z"/>
		<path fill="#FFDD00" d="M3091.25-57.022c7.241-4.357,15.04-7.679,23.037-10.404c-0.557,13.01-5.252,26.1-14.781,35.212
			c-11.101,10.941-26.14,16.969-41.279,19.754c-13.07,2.546-25.722,6.724-38.275,11.101c0.955-18.919,8.156-39.011,23.932-50.53
			c13.965-8.057,30.258-10.842,45.934-13.687C3090.295-62.731,3090.773-59.887,3091.25-57.022z"/>
	</g>
	<g>
		<path fill="#AE1C3F" d="M3298.18,137.558c1.45-0.05,2.92-0.08,4.4-0.1c17.29,37.34,34.62,74.67,52.04,111.96
			c3.27,5.78,5.8,12.74,12.01,16.03c3.64,2.23,7.95,2.69,12.12,3.02c-0.01,1.47-0.01,2.94,0,4.44c-19.54,0.3-39.09,0.04-58.63,0.12
			c-0.04-1.49-0.06-2.96-0.08-4.42c4.35-0.71,9.13-0.44,12.93-3.02c3.72-3.92,1.13-9.47-0.42-13.76
			c-3.38-7.66-7.01-15.21-10.59-22.78c-18.55-0.05-37.1-0.14-55.64,0.04c-2.25,2.86-3.25,6.6-5.01,9.81
			c-2.91,6.66-6.95,12.95-8.47,20.15c-0.99,3.02,1.29,5.97,3.92,7.22c4.08,1.62,8.52,1.73,12.84,2.25c-0.06,1.49-0.09,3-0.11,4.52
			c-15.67-0.04-31.33,0.05-47-0.04c-0.01-1.52,0-3.02,0-4.51c4.84-0.92,10.48-1.35,13.92-5.34c3.82-4.4,6.44-9.67,9.15-14.79
			C3263.1,211.418,3280.6,174.468,3298.18,137.558z M3269.88,220.788c16.19,0.09,32.38,0.09,48.58,0.01
			c-7.89-17.13-15.97-34.17-23.86-51.31C3286.1,186.458,3278.13,203.688,3269.88,220.788z"/>
	</g>
	<path fill="#AE1C3F" d="M2738.03,138.648c15.71-2.02,31.97,0.87,45.91,8.4c1.42-2.03,2.77-4.1,4.12-6.17
		c2.93-0.06,5.86-0.04,8.8,0.13c0.39,15.66,0.34,31.32,0.84,46.98c-3.06,0-6.12,0.01-9.18-0.05c-3.57-12.86-8.53-26.53-19.9-34.53
		c-9.29-6.71-21.57-7.66-32.51-5.31c-10.11,2.06-18.97,8.57-24.63,17.12c-8.77,13.43-11.18,29.96-10.66,45.72
		c0.75,16.13,5.52,33.28,17.89,44.43c13.92,12.97,35.91,14.84,52.75,6.75c1.95-1.08,4.51-2.43,4.49-4.99
		c0.6-8.04,0.45-16.11,0.37-24.16c0.04-3.62-1.28-7.92-5.06-9.18c-5.93-2.2-12.34-2.67-18.6-3c0.03-2.65,0.03-5.29-0.04-7.92
		c21.18,0,42.35-0.02,63.53,0.01c0.11,2.59,0.12,5.2,0.06,7.82c-5.65,0.85-12.07,0.64-16.63,4.62c-1.84,2.8-2.12,6.3-2.07,9.58
		c0.11,9.89-0.23,19.79,0.62,29.66c-15.88,6.42-32.72,11.14-49.93,11.54c-15.02,0.68-30.28-3.26-43.02-11.26
		c-15.63-10.29-26.89-27.3-29.12-46c-2.46-16.35,0.63-33.6,9.27-47.76C2696.42,152.688,2716.79,140.748,2738.03,138.648z"/>
	<g>
		<path fill="#AE1C3F" d="M2596.33,138.998c2.84,0.02,5.68,0.04,8.52,0.06c16.34,38.45,32.27,77.07,48.63,115.51
			c3.54,7.71,12.23,10.48,20.08,11.14c-0.02,2.44-0.04,4.9-0.06,7.36c-20.13,0.04-40.25-0.09-60.38,0.05c0-2.52,0.02-5.04,0.05-7.55
			c6.15-0.5,12.53-0.88,18.14-3.69c-0.16-2.29-0.3-4.63-1.27-6.73c-3.77-9.05-7.33-18.19-11.08-27.25
			c-16.46-0.12-32.93-0.16-49.4,0.03c-3.23,8.08-6.57,16.17-8.89,24.58c-0.57,2.9-1.77,6.81,1.32,8.75
			c5.46,3.47,12.2,3.59,18.43,4.43c-0.01,2.44-0.02,4.9-0.02,7.36c-18.06,0.02-36.13,0.02-54.2,0.02v-7.88
			c9.03,0.41,18.63-4.48,22.05-13.21C2564.84,214.558,2580.3,176.658,2596.33,138.998z M2573.31,218.718
			c13.93-0.32,27.9-0.32,41.83,0.01c-7.27-16.27-13.9-32.82-21.08-49.13C2587,185.908,2580.67,202.548,2573.31,218.718z"/>
	</g>
	<path fill="#AE1C3F" d="M2989.17,139.498c21.71-0.03,43.41-0.03,65.12,0c0.02,2.28-0.02,4.58-0.15,6.87
		c-5.43,0.31-10.88,0.83-16.14,2.27c-3.16,0.8-5.26,4.13-4.95,7.34c-0.05,32.97,0.03,65.94-0.03,98.91
		c-0.12,2.29,0.4,4.56,1.44,6.62c5.78,3.92,13.09,4.03,19.81,4.69c0.01,2.28,0.01,4.56,0,6.86c-21.72,0-43.43,0.05-65.14-0.03
		c-0.01-2.31,0-4.6,0.03-6.88c6.62-0.61,13.8,0.2,19.75-3.38c1.2-2.09,1.7-4.46,1.6-6.86c-0.03-31.35,0.02-62.71-0.02-94.06
		c-0.14-3.6,0.06-7.36-1.5-10.7c-6.2-3.06-13.13-3.97-19.89-4.91C2989.12,143.988,2989.14,141.738,2989.17,139.498z"/>
	<g>
		<path fill="#AE1C3F" d="M2836.52,140.928c21.88-0.16,43.76-0.01,65.64-0.07c11.41,0.01,23.22,1.87,33.09,7.92
			c5.7,4.12,10.92,9.72,12.28,16.86c2.18,10.08,0.15,21.75-7.49,29.13c-7.25,7.07-16.97,11.25-26.72,13.51
			c3.7,3.18,6.29,7.38,9.54,10.99c7.95,10.06,16.03,20.03,24.07,30.03c4.25,6.05,9.99,11.23,16.9,14.02
			c3.97,1.61,8.28,1.75,12.47,2.39c-0.01,2.43-0.02,4.88-0.03,7.32c-12.95,0.1-25.89,0.01-38.84,0.04
			c-8.37-11.4-16.26-23.18-25.04-34.29c-6.9-8.18-12.94-17.11-20.51-24.7c-4.47-0.73-9.07-0.12-13.58-0.32
			c-0.21,14.07-0.08,28.13-0.03,42.2c-0.11,2.8,0.99,6.14,3.87,7.16c4.99,2.02,10.48,1.98,15.77,2.45c0.02,2.52,0,5.06-0.14,7.6
			c-20.35-0.16-40.71-0.17-61.06-0.01c-0.17-2.54-0.19-5.08-0.16-7.61c5.82-1.02,13.29,0.43,17.55-4.56
			c1.52-2.38,1.48-5.33,1.55-8.04c-0.01-30.66,0.01-61.32-0.01-91.98c-0.08-3.28-0.17-7.44-3.42-9.26
			c-4.93-2.16-10.4-2.59-15.69-3.17C2836.56,145.988,2836.55,143.458,2836.52,140.928z M2878.3,149.498
			c-0.15,18.43-0.08,36.86-0.02,55.29c9.95-0.12,20.58,1,29.62-4.09c10.17-4.98,15.51-16.76,14.49-27.76
			c0.09-9.16-5.81-17.94-14.38-21.19C2898.51,148.228,2888.19,149.928,2878.3,149.498z"/>
	</g>
	<g>
		<path fill="#AE1C3F" d="M3077.13,140.468c23,0.22,46-0.06,69.01,0.14c14.36,0.14,29.44,1.75,41.9,9.5
			c7.04,4.92,13.11,12.19,14.51,20.9c1.54,7.8-0.57,16.32-5.86,22.32c-4.74,5.97-11.69,9.74-18.84,12.06
			c9.32,1.65,18.97,5.26,25.06,12.87c6.91,7.48,8.66,18.98,5.03,28.39c-2.77,7.56-8.62,13.59-15.21,18.02
			c-10.96,6.64-24.07,7.67-36.57,8.3c-26.33,0.16-52.65-0.05-78.98,0.12c-0.01-1.6,0.02-3.17,0.06-4.74
			c5.37,0.22,11.22,0.54,16.05-2.24c5.01-3.3,4.92-9.88,5.04-15.2c0.02-29.98,0.1-59.97-0.05-89.95
			c-0.27-4.62-0.19-10.63-4.74-13.28c-4.86-3.14-10.92-2.62-16.43-2.55C3077.11,143.568,3077.12,142.008,3077.13,140.468z
			 M3120.25,150.018c0.01,16.59-0.02,33.19,0.01,49.78c4.63,0.58,9.28,1.18,13.97,1.07c6.98-0.16,14.03,0.45,20.94-0.83
			c6.32-0.9,12.87-3.04,17.36-7.81c7.65-7.33,9.09-20.13,3.49-29.07c-4.35-6.95-12.02-11.15-19.77-13.18
			C3144.47,147.188,3132.05,147.468,3120.25,150.018z M3120.31,210.758c-0.14,17.29-0.03,34.58-0.05,51.87
			c11.4,2.38,23.17,3.13,34.75,1.86c9.37-1.2,19.11-5.06,24.56-13.15c5.47-7.32,5.3-17.72,0.88-25.5
			c-3.52-7.18-10.94-11.43-18.29-13.8c-12.22-4.23-25.33-3.09-38.02-2.97C3122.94,209.438,3120.01,208.668,3120.31,210.758z"/>
	</g>
	<path fill="#AE1C3F" d="M3377.15,140.458c13.5,0.16,27,0.04,40.5,0.07c5.35,6.37,11.43,12.15,16.49,18.74l0.2-0.25
		c23.9,26.43,47.74,52.95,71.82,79.22c-0.04-26.11,0.02-52.23-0.02-78.34c-0.13-3.84-0.7-7.93-2.78-11.2
		c-5.03-3.99-11.82-3.71-17.87-3.59c-0.02-1.55-0.03-3.09-0.02-4.62c17.3,0.11,34.61,0,51.92,0.06c-0.03,1.5-0.04,3-0.04,4.51
		c-6.15-0.01-13.3-0.47-18.01,4.27c-2.49,3.68-2.25,8.33-2.54,12.58c-0.18,37.78,0.11,75.57-0.14,113.35
		c-2.14-0.05-4.63,0.25-5.95-1.81c-31.46-34.54-62.93-69.08-94.29-103.71c0.19,24.05,0.02,48.11,0.08,72.16
		c0.07,6.69-0.44,13.54,1.38,20.07c0.7,2.78,3.42,4.39,5.93,5.36c4.35,1.43,8.99,1.02,13.5,1.25c-0.03,1.47-0.06,2.94-0.07,4.43
		c-17.31,0.06-34.62-0.06-51.92,0.07c-0.03-1.58-0.03-3.14-0.03-4.69c6.22,0.26,13.44,0.46,18.28-4.15
		c2.26-4.02,2.38-8.85,2.51-13.35c0.02-30.88-0.01-61.76,0.02-92.64c-3.32-2.85-5.94-6.58-9.89-8.61
		c-5.76-3.33-12.46-4.85-19.09-4.51C3377.12,143.558,3377.13,142.008,3377.15,140.458z"/>
	<path fill="#AE1C3F" d="M3543.13,140.448c21.11,0.2,42.23,0.02,63.34,0.09c-0.03,1.51-0.04,3.02-0.04,4.55
		c-6.17-0.31-12.98,0.07-17.97,4.13c-2.44,2.97-2.24,7.11-2.51,10.75c-0.32,14.56,0.09,29.12-0.22,43.68
		c7.44-6.36,15.14-12.41,22.43-18.95c8.12-6.5,16.06-13.23,23.45-20.55c3.77-3.91,8.33-7.66,9.52-13.24c0.3-1.41-0.68-2.6-1.06-3.85
		c-3.74-2.02-8.02-2.19-12.17-1.99c-0.02-1.53-0.03-3.05-0.03-4.56c18.22,0.06,36.45,0.01,54.69,0.02
		c-0.04,1.48-0.07,2.97-0.07,4.48c-9.83,0.09-18.86,4.85-26.49,10.67c-8.27,5.93-15.24,13.39-22.88,20.06
		c-7.59,7.12-15.49,13.88-23.17,20.91c-0.95,1.06-2.45,1.84-2.81,3.3c12.5,11.53,25.39,22.68,37.96,34.14
		c9.86,8.41,18.93,17.81,29.76,25.02c7.94,5.44,17.33,8.76,26.94,9.39c-0.09,1.52-0.15,3.06-0.22,4.6c-23.5-0.15-47-0.1-70.5-0.01
		c0.04-1.57,0.1-3.13,0.17-4.68c3.62-0.21,8.03,0.15,10.59-2.95c2.08-2.01,1.02-5.32-0.28-7.45c-3.6-4.26-8.25-7.42-12.18-11.33
		c-14.59-12.86-29-25.92-43.63-38.73c0.26,14.98-0.08,29.97,0.16,44.96c0.21,3.57,0.06,7.37,1.79,10.64
		c4.95,4.76,12.29,5.24,18.8,4.92c-0.04,1.51-0.07,3.03-0.08,4.56c-21.11,0.03-42.21-0.08-63.32,0.07c0.03-1.61,0.08-3.18,0.14-4.75
		c5.99,0.3,12.88,0.52,17.72-3.63c3.01-3.43,2.8-8.45,3.13-12.76c0.07-30.36,0.04-60.72,0.01-91.08c-0.36-4.19,0.07-9.44-3.68-12.27
		c-4.95-3.6-11.4-3.81-17.27-3.42C3543.13,143.598,3543.12,142.018,3543.13,140.448z"/>
</g>
</svg>
